<svg xmlns="http://www.w3.org/2000/svg" xmlns:xlink="http://www.w3.org/1999/xlink" width="29.448" height="30.133" viewBox="0 0 29.448 30.133"><defs><style>.a{fill:none;}.b{clip-path:url(#a);}.c{fill:#fffffe;}</style><clipPath id="a"><rect class="a" width="29.448" height="30.133" transform="translate(0 0)"/></clipPath></defs><g class="b"><path class="c" d="M18.6,8.87a7.731,7.731,0,0,1,4.472,8.424A8.44,8.44,0,0,1,26,23.679v.239a4.22,4.22,0,1,1,1.406,8.2H9.124a5.625,5.625,0,1,1,0-11.25H9.5a7.74,7.74,0,0,1,9.1-12m-1.139,2.574a4.922,4.922,0,0,0-6.356,6.792,8.468,8.468,0,0,1,9.267-2.517,4.931,4.931,0,0,0-2.911-4.275M19.741,6.3a11.059,11.059,0,0,0-2.349-.731l3.5-1.828L22.16,7.8a10.787,10.787,0,0,0-2.419-1.5M9.25,7.422A9.826,9.826,0,0,0,7.436,9.1l.155-3.952,4.163.956a9.323,9.323,0,0,0-2.5,1.322M26,14.833a13.629,13.629,0,0,0-.577-2.4l3.347,2.109-2.883,3.136A11.906,11.906,0,0,0,26,14.833M4.961,17.069A10.785,10.785,0,0,0,5.51,19.46L2.177,17.35l2.869-3.122a11.231,11.231,0,0,0-.084,2.841m22.444,9.422H23.187V23.679a5.625,5.625,0,0,0-11.25,0H9.124a2.813,2.813,0,0,0,0,5.625H27.406a1.406,1.406,0,0,0,0-2.813Z" transform="translate(-2.177 -2.861)"/></g></svg>