<svg xmlns="http://www.w3.org/2000/svg" width="30.433" height="32.686" viewBox="0 0 30.433 32.686"><defs><style>.a{fill:#2d334a;}</style></defs><path class="a" d="M18.155,1.75,12.086,3.235,4.106,30.449A3.579,3.579,0,0,0,4,31.208a3.382,3.382,0,0,0,3.539,3.228H28.771a3.382,3.382,0,0,0,3.539-3.228,3.579,3.579,0,0,0-.106-.759L29.8,22.2,27,24.751l.354,1.614H20.65l5.025-4.584L23.18,19.505l-7.52,6.86H8.954L15.129,5.382h6.051l2.583,8.765L26.648,11.5,24.224,3.235,18.155,1.75M16.828,7V22.734l2.654-2.421V7H16.828m15.11,4.52-5.007,4.568-1.256-1.146L23.18,17.229l4.99,4.552,2.513-2.276-1.256-1.146,5.007-4.568Z" transform="translate(-4 -1.75)"/></svg>