<svg xmlns="http://www.w3.org/2000/svg" width="28.263" height="26.846" viewBox="0 0 28.263 26.846"><defs><style>.a{fill:#fffffe;}</style></defs><path class="a" d="M11.277,15.631a1.376,1.376,0,0,1,.912,1.663l-1.67,6.584a1.272,1.272,0,0,1-1.567.968,1.33,1.33,0,0,1-.886-1.663L9.71,16.6a1.272,1.272,0,0,1,1.567-.968m5.139,0a1.376,1.376,0,0,1,.912,1.663L14.669,27.832a1.27,1.27,0,0,1-1.58.968,1.4,1.4,0,0,1-.912-1.677L14.849,16.6a1.272,1.272,0,0,1,1.567-.968m5.139,0a1.376,1.376,0,0,1,.912,1.663L20.8,23.879a1.272,1.272,0,0,1-1.567.968,1.33,1.33,0,0,1-.886-1.663L19.987,16.6a1.272,1.272,0,0,1,1.567-.968m0-2.726V11.542a6.628,6.628,0,0,0-6.423-6.816,6.555,6.555,0,0,0-6.346,5.712,3.792,3.792,0,0,0-1.362-.259,3.977,3.977,0,0,0-3.854,4.089A4.135,4.135,0,0,0,5.5,17.813V17.8a1.406,1.406,0,0,1,.475,1.868,1.248,1.248,0,0,1-1.76.491v.014A6.872,6.872,0,0,1,1,14.268,6.628,6.628,0,0,1,7.423,7.453,8.392,8.392,0,0,1,15.131,2a8.612,8.612,0,0,1,8.35,8.22l.642-.041a5.3,5.3,0,0,1,5.139,5.453,5.458,5.458,0,0,1-2.569,4.716h0a1.252,1.252,0,0,1-1.76-.5,1.4,1.4,0,0,1,.475-1.868v.014a2.737,2.737,0,0,0,1.285-2.358,2.651,2.651,0,0,0-2.569-2.726Z" transform="translate(-1 -2)"/></svg>