<svg xmlns="http://www.w3.org/2000/svg" xmlns:xlink="http://www.w3.org/1999/xlink" width="29.448" height="30.133" viewBox="0 0 29.448 30.133"><defs><style>.a{fill:none;}.b{clip-path:url(#a);}.c{fill:#fffffe;}</style><clipPath id="a"><rect class="a" width="29.448" height="30.133" transform="translate(0 0)"/></clipPath></defs><g class="b"><path class="c" d="M20.4,11.933a7.533,7.533,0,1,1-7.533,7.533A7.533,7.533,0,0,1,20.4,11.933m0,3.013a4.52,4.52,0,1,0,4.52,4.52,4.52,4.52,0,0,0-4.52-4.52M20.4,4.4,24,9.553a10.562,10.562,0,0,0-7.2,0L20.4,4.4M7.348,11.933l6.268-.527a10.849,10.849,0,0,0-2.35,2.787,10.044,10.044,0,0,0-1.251,3.45l-2.667-5.71M7.378,27l2.652-5.68a10.549,10.549,0,0,0,1.251,3.42,10.744,10.744,0,0,0,2.335,2.817L7.378,27m26.05-15.066-2.667,5.71a10.582,10.582,0,0,0-1.251-3.45,10.87,10.87,0,0,0-2.335-2.8l6.253.542M33.413,27l-6.237.542a11.128,11.128,0,0,0,2.32-2.8,10.582,10.582,0,0,0,1.25-3.45L33.413,27M20.4,34.533,16.764,29.35a10.11,10.11,0,0,0,7.2,0Z" transform="translate(-5.664 -4.4)"/></g></svg>